<?xml version="1.0" encoding="utf-8"?>
<!-- Generator: Adobe Illustrator 16.0.0, SVG Export Plug-In . SVG Version: 6.00 Build 0)  -->
<!DOCTYPE svg PUBLIC "-//W3C//DTD SVG 1.1//EN" "http://www.w3.org/Graphics/SVG/1.1/DTD/svg11.dtd">
<svg version="1.1" id="Warstwa_2" xmlns="http://www.w3.org/2000/svg" xmlns:xlink="http://www.w3.org/1999/xlink" x="0px" y="0px"
	 width="50.444px" height="52.666px" viewBox="0 0 50.444 52.666" enable-background="new 0 0 50.444 52.666" xml:space="preserve">
<path fill="none" stroke="#FFFFFF" stroke-width="1.5" stroke-miterlimit="10" d="M32.349,9.268c0,0-0.417-3-3.25-3
	s-3.417,2.75-3.417,3.917s0.416,4.583,3.333,4.583s3.334-3.833,3.334-3.833s0.167,3.833,2.75,3.833s2.667-4.083,2.667-5.667
	s-1.416-8.25-8.5-8.25s-9,5.917-9,9.167s2,9.833,8.75,9.833s7-3,7-3"/>
<path fill="none" stroke="#FFFFFF" stroke-width="1.5" stroke-miterlimit="10" d="M7.016,14.976c0-2.583,1.667-4.625,3.709-4.625
	c1.25,0,6.416,0,6.416,0"/>
<path fill="none" stroke="#FFFFFF" stroke-width="1.5" stroke-miterlimit="10" d="M40.183,10.351c0,0,4.041,0,6.333,0
	s2.584,1.75,2.584,2.958s0,25.667,0,26.792s-1.25,2.041-2.042,2.041s-11.292,0-11.292,0"/>
<line fill="none" stroke="#FFFFFF" stroke-width="1.5" stroke-miterlimit="10" x1="33.641" y1="29.559" x2="48.643" y2="41.264"/>
<line fill="none" stroke="#FFFFFF" stroke-width="1.5" stroke-miterlimit="10" x1="23.475" y1="29.559" x2="14.558" y2="36.977"/>
<polyline fill="none" stroke="#FFFFFF" stroke-width="1.5" stroke-miterlimit="10" points="7.802,12.124 28.225,30.184 
	48.643,12.434 "/>
<path fill="none" stroke="#FFFFFF" stroke-width="1.5" stroke-miterlimit="10" d="M12.891,38.602
	c1.77,1.645,5.543,4.916,7.834,4.875c2.291-0.043,2.75-2.334,3.333-3.334s3.374-2.292,4.958-0.834c1.584,1.459,4.584,3.25,5.042,6
	s-3.542,6.043-7.167,6.043s-11.75-4.043-17.125-9.459S0.892,29.018,0.85,24.976c-0.042-4.042,2.5-6.917,4.666-7.167
	c2.284-0.264,7.709,3.25,7.709,7.042s-4.709,3.417-4.709,5.958C8.516,33.352,11.575,37.378,12.891,38.602z"/>
</svg>
