<?xml version="1.0" encoding="UTF-8" standalone="no"?>
<!-- Generator: Adobe Illustrator 16.0.0, SVG Export Plug-In . SVG Version: 6.00 Build 0)  -->

<svg
   xmlns:osb="http://www.openswatchbook.org/uri/2009/osb"
   xmlns:dc="http://purl.org/dc/elements/1.1/"
   xmlns:cc="http://creativecommons.org/ns#"
   xmlns:rdf="http://www.w3.org/1999/02/22-rdf-syntax-ns#"
   xmlns:svg="http://www.w3.org/2000/svg"
   xmlns="http://www.w3.org/2000/svg"
   xmlns:sodipodi="http://sodipodi.sourceforge.net/DTD/sodipodi-0.dtd"
   xmlns:inkscape="http://www.inkscape.org/namespaces/inkscape"
   version="1.1"
   id="Warstwa_2"
   x="0px"
   y="0px"
   width="54.358px"
   height="46.539px"
   viewBox="0 0 54.358 46.539"
   enable-background="new 0 0 54.358 46.539"
   xml:space="preserve"
   inkscape:version="0.91 r13725"
   sodipodi:docname="ikonki-stronaWWW-mapa-01.svg"><metadata
     id="metadata17"><rdf:RDF><cc:Work
         rdf:about=""><dc:format>image/svg+xml</dc:format><dc:type
           rdf:resource="http://purl.org/dc/dcmitype/StillImage" /><dc:title></dc:title></cc:Work></rdf:RDF></metadata><defs
     id="defs15"><linearGradient
       id="linearGradient4145"
       osb:paint="solid"><stop
         style="stop-color:#000000;stop-opacity:1;"
         offset="0"
         id="stop4147" /></linearGradient></defs><sodipodi:namedview
     pagecolor="#ffffff"
     bordercolor="#666666"
     borderopacity="1"
     objecttolerance="10"
     gridtolerance="10"
     guidetolerance="10"
     inkscape:pageopacity="0"
     inkscape:pageshadow="2"
     inkscape:window-width="1920"
     inkscape:window-height="1017"
     id="namedview13"
     showgrid="false"
     inkscape:zoom="5.0710155"
     inkscape:cx="27.179001"
     inkscape:cy="23.269501"
     inkscape:window-x="-8"
     inkscape:window-y="-8"
     inkscape:window-maximized="1"
     inkscape:current-layer="Warstwa_2" /><path
     d="M37.635,0.284c-6.167,0-9.167,5.667-9.167,5.667s-3-5.667-8.75-5.667c-4.417,0-8.75,3.167-8.75,8.167  s1.833,7.5,5.167,12s12.333,12.5,12.333,12.5s9.833-9.167,12.5-12.5s5.333-8.667,5.333-11.667S42.801,0.284,37.635,0.284z   M36.968,12.284c-2.301,0-4.167-1.866-4.167-4.167s1.866-4.167,4.167-4.167s4.167,1.866,4.167,4.167S39.269,12.284,36.968,12.284z"
     id="path3"
     style="fill:#ffffff"
     fill="#FFFFFF" /><polyline
     fill="none"
     stroke="#FFFFFF"
     stroke-width="1.5"
     stroke-miterlimit="10"
     points="10.968,17.45 7.135,16.617 1.135,38.45   12.635,45.562 27.301,41.617 41.801,45.562 53.135,38.783 47.468,16.617 44.468,17.284 "
     id="polyline5"
     style="fill:none;stroke:#ffffff;stroke-opacity:1" /><line
     fill="none"
     stroke="#FFFFFF"
     stroke-width="1.5"
     stroke-miterlimit="10"
     x1="15.801"
     y1="27.783"
     x2="12.635"
     y2="45.562"
     id="line7"
     style="fill:none;stroke:#ffffff;stroke-opacity:1" /><line
     fill="none"
     stroke="#FFFFFF"
     stroke-width="1.5"
     stroke-miterlimit="10"
     x1="38.801"
     y1="27.783"
     x2="41.801"
     y2="45.562"
     id="line9"
     style="fill:none;stroke:#ffffff;stroke-opacity:1" /><line
     fill="none"
     stroke="#FFFFFF"
     stroke-width="1.5"
     stroke-miterlimit="10"
     x1="27.135"
     y1="37.617"
     x2="27.301"
     y2="41.617"
     id="line11"
     style="fill:none;stroke:#ffffff;stroke-opacity:1" /><path
     inkscape:connector-curvature="0"
     d="m 37.791577,0.82282683 c -6.167,0 -9.167,5.66700007 -9.167,5.66700007 0,0 -3,-5.66700007 -8.75,-5.66700007 -4.417,0 -8.75,3.16700007 -8.75,8.16700007 0,5.0000001 1.833,7.4999991 5.167,11.9999991 3.334,4.5 12.333,12.5 12.333,12.5 0,0 9.833,-9.167 12.5,-12.5 2.667,-3.333 5.333,-8.666999 5.333,-11.6669991 0,-3 -3.5,-8.50000007 -8.666,-8.50000007 z m -0.667,12.00000017 c -2.301,0 -4.167,-1.866 -4.167,-4.1670001 0,-2.301 1.866,-4.167 4.167,-4.167 2.301,0 4.167,1.866 4.167,4.167 0,2.3010001 -1.866,4.1670001 -4.167,4.1670001 z"
     id="path3-2"
     style="fill:none" /></svg>