<?xml version="1.0" encoding="utf-8"?>
<!-- Generator: Adobe Illustrator 16.0.0, SVG Export Plug-In . SVG Version: 6.00 Build 0)  -->
<!DOCTYPE svg PUBLIC "-//W3C//DTD SVG 1.1//EN" "http://www.w3.org/Graphics/SVG/1.1/DTD/svg11.dtd">
<svg version="1.1" id="Warstwa_2" xmlns="http://www.w3.org/2000/svg" xmlns:xlink="http://www.w3.org/1999/xlink" x="0px" y="0px"
	 width="43.241px" height="48.535px" viewBox="0 0 43.241 48.535" enable-background="new 0 0 43.241 48.535" xml:space="preserve">
<rect x="5.5" y="11.367" fill="none" stroke="#FFFFFF" stroke-width="0.75" stroke-miterlimit="10" width="5.583" height="5.583"/>
<rect x="5.5" y="18.201" fill="none" stroke="#FFFFFF" stroke-width="0.75" stroke-miterlimit="10" width="5.583" height="5.583"/>
<rect x="5.5" y="25.283" fill="none" stroke="#FFFFFF" stroke-width="0.75" stroke-miterlimit="10" width="5.583" height="5.584"/>
<rect x="5.5" y="32.117" fill="none" stroke="#FFFFFF" stroke-width="0.75" stroke-miterlimit="10" width="5.583" height="5.584"/>
<line fill="none" stroke="#FFFFFF" stroke-width="1.5" stroke-miterlimit="10" x1="12.416" y1="14.158" x2="27.333" y2="14.158"/>
<line fill="none" stroke="#FFFFFF" stroke-width="1.5" stroke-miterlimit="10" x1="12.416" y1="20.992" x2="27.333" y2="20.992"/>
<line fill="none" stroke="#FFFFFF" stroke-width="1.5" stroke-miterlimit="10" x1="12.416" y1="28.075" x2="25.416" y2="28.075"/>
<line fill="none" stroke="#FFFFFF" stroke-width="1.5" stroke-miterlimit="10" x1="12.416" y1="34.909" x2="21.833" y2="34.909"/>
<path fill="none" stroke="#FFFFFF" stroke-width="2" stroke-miterlimit="10" d="M21.833,42.95c0,0-13.833,0-15.667,0
	c-1.833,0-4.75-1.667-4.75-4.417s0-27.417,0-29.917s2.5-4.333,4.75-4.333s20.666,0,22.833,0s4.5,2.334,4.5,4.5s0,18.416,0,18.416"/>
<rect x="5.916" y="0.284" fill="#FFFFFF" width="23.167" height="8.667"/>
<path fill="#FFFFFF" d="M41.378,29.849H26.056c-0.878,0-1.59,0.712-1.59,1.589v15.323c0,0.876,0.712,1.588,1.59,1.588h15.322
	c0.876,0,1.588-0.712,1.588-1.588V31.438C42.966,30.561,42.254,29.849,41.378,29.849z M41.166,33.426l-8.21,13.621l-6.591-8.475
	c-0.509-0.654-0.392-1.597,0.263-2.105c0.652-0.509,1.597-0.392,2.104,0.264l3.909,5.025l5.956-9.879
	c0.428-0.711,1.35-0.938,2.059-0.511S41.594,32.716,41.166,33.426z"/>
</svg>
