<?xml version="1.0" encoding="utf-8"?>
<!-- Generator: Adobe Illustrator 16.0.0, SVG Export Plug-In . SVG Version: 6.00 Build 0)  -->
<!DOCTYPE svg PUBLIC "-//W3C//DTD SVG 1.1//EN" "http://www.w3.org/Graphics/SVG/1.1/DTD/svg11.dtd">
<svg version="1.1" id="Warstwa_2" xmlns="http://www.w3.org/2000/svg" xmlns:xlink="http://www.w3.org/1999/xlink" x="0px" y="0px"
	 width="44.24px" height="43.666px" viewBox="0 0 44.24 43.666" enable-background="new 0 0 44.24 43.666" xml:space="preserve">
<rect x="3.199" y="2.817" fill="#FFFFFF" width="4.917" height="4.917"/>
<rect x="0.949" y="0.567" fill="none" stroke="#FFFFFF" stroke-miterlimit="10" width="9.334" height="9.334"/>
<rect x="35.616" y="2.817" fill="#FFFFFF" width="4.917" height="4.917"/>
<rect x="33.366" y="0.567" fill="none" stroke="#FFFFFF" stroke-miterlimit="10" width="9.334" height="9.334"/>
<rect x="3.199" y="35.317" fill="#FFFFFF" width="4.917" height="4.917"/>
<rect x="0.949" y="33.067" fill="none" stroke="#FFFFFF" stroke-miterlimit="10" width="9.334" height="9.334"/>
<polyline fill="none" stroke="#FFFFFF" stroke-miterlimit="10" points="0.949,30.65 0.949,26.817 2.449,26.817 2.449,22.067 
	0.283,22.067 "/>
<polyline fill="none" stroke="#FFFFFF" stroke-miterlimit="10" points="0.949,16.984 0.949,19.234 5.657,19.234 5.657,21.317 "/>
<polyline fill="none" stroke="#FFFFFF" stroke-miterlimit="10" points="0.283,12.901 4.116,12.901 4.116,14.401 8.866,14.401 
	8.866,12.901 11.783,12.901 11.783,17.567 13.199,17.567 13.199,19.817 "/>
<polyline fill="none" stroke="#FFFFFF" stroke-miterlimit="10" points="15.283,5.275 13.199,5.234 13.199,0.567 16.533,0.567 
	16.533,2.234 21.033,2.234 21.033,0.567 24.699,0.567 "/>
<polyline fill="none" stroke="#FFFFFF" stroke-miterlimit="10" points="40.533,17.484 42.7,17.484 42.7,12.901 39.699,12.901 
	39.699,14.651 34.866,14.651 34.866,12.901 25.699,12.901 25.699,17.901 "/>
<polyline fill="none" stroke="#FFFFFF" stroke-miterlimit="10" points="30.366,1.317 30.366,5.275 28.949,5.275 28.949,9.901 
	30.366,9.901 30.366,12.901 "/>
<line fill="none" stroke="#FFFFFF" stroke-miterlimit="10" x1="19.616" y1="4.567" x2="19.616" y2="2.234"/>
<line fill="none" stroke="#FFFFFF" stroke-miterlimit="10" x1="22.449" y1="3.401" x2="22.449" y2="5.275"/>
<polyline fill="none" stroke="#FFFFFF" stroke-miterlimit="10" points="18.033,10.651 18.033,8.484 13.199,8.484 13.199,11.234 
	14.866,11.234 14.866,16.359 "/>
<line fill="none" stroke="#FFFFFF" stroke-miterlimit="10" x1="17.366" y1="14.484" x2="14.866" y2="14.484"/>
<line fill="none" stroke="#FFFFFF" stroke-miterlimit="10" x1="4.783" y1="25.15" x2="2.449" y2="25.15"/>
<polyline fill="none" stroke="#FFFFFF" stroke-miterlimit="10" points="25.699,4.338 25.699,6.734 28.949,6.734 "/>
<line fill="none" stroke="#FFFFFF" stroke-miterlimit="10" x1="21.033" y1="7.734" x2="21.033" y2="9.067"/>
<line fill="none" stroke="#FFFFFF" stroke-miterlimit="10" x1="22.449" y1="10.567" x2="22.449" y2="13.484"/>
<polyline fill="none" stroke="#FFFFFF" stroke-miterlimit="10" points="21.033,13.484 21.033,16.359 19.616,16.359 19.616,19.151 
	24.699,19.151 "/>
<line fill="none" stroke="#FFFFFF" stroke-miterlimit="10" x1="22.449" y1="16.359" x2="22.449" y2="19.151"/>
<line fill="none" stroke="#FFFFFF" stroke-miterlimit="10" x1="21.033" y1="21.317" x2="21.033" y2="19.151"/>
<line fill="none" stroke="#FFFFFF" stroke-miterlimit="10" x1="5.616" y1="16.984" x2="5.616" y2="14.484"/>
<line fill="none" stroke="#FFFFFF" stroke-miterlimit="10" x1="9.449" y1="17.401" x2="11.199" y2="17.401"/>
<line fill="none" stroke="#FFFFFF" stroke-miterlimit="10" x1="9.449" y1="21.317" x2="12.783" y2="21.317"/>
<line fill="none" stroke="#FFFFFF" stroke-miterlimit="10" x1="6.741" y1="22.067" x2="8.116" y2="22.067"/>
<polyline fill="none" stroke="#FFFFFF" stroke-miterlimit="10" points="9.449,25.15 7.429,25.15 7.429,30.067 10.283,30.067 
	10.283,28.15 14.866,28.15 14.866,30.067 19.616,30.067 19.616,25.15 "/>
<polyline fill="none" stroke="#FFFFFF" stroke-miterlimit="10" points="14.866,19.817 14.866,23.734 17.366,23.734 "/>
<line fill="none" stroke="#FFFFFF" stroke-miterlimit="10" x1="13.522" y1="25.817" x2="13.522" y2="28.15"/>
<line fill="none" stroke="#FFFFFF" stroke-miterlimit="10" x1="17.366" y1="25.15" x2="21.783" y2="25.15"/>
<line fill="none" stroke="#FFFFFF" stroke-miterlimit="10" x1="17.366" y1="22.067" x2="20.199" y2="22.067"/>
<polyline fill="none" stroke="#FFFFFF" stroke-miterlimit="10" points="13.199,30.65 13.199,33.067 14.866,33.067 14.866,37.734 "/>
<line fill="none" stroke="#FFFFFF" stroke-miterlimit="10" x1="17.366" y1="36.15" x2="14.866" y2="36.15"/>
<polyline fill="none" stroke="#FFFFFF" stroke-miterlimit="10" points="13.199,38.65 13.199,42.401 17.366,42.401 "/>
<line fill="none" stroke="#FFFFFF" stroke-miterlimit="10" x1="16.449" y1="38.65" x2="16.449" y2="40.234"/>
<line fill="none" stroke="#FFFFFF" stroke-miterlimit="10" x1="25.699" y1="10.567" x2="25.699" y2="12.901"/>
<line fill="none" stroke="#FFFFFF" stroke-miterlimit="10" x1="25.699" y1="19.817" x2="25.699" y2="24.067"/>
<line fill="none" stroke="#FFFFFF" stroke-miterlimit="10" x1="23.283" y1="22.067" x2="25.699" y2="22.067"/>
<polyline fill="none" stroke="#FFFFFF" stroke-miterlimit="10" points="23.949,24.067 23.949,26.984 25.699,26.984 25.699,31.65 
	28.949,31.65 28.949,30.067 30.949,30.067 "/>
<line fill="none" stroke="#FFFFFF" stroke-miterlimit="10" x1="23.283" y1="30.067" x2="25.699" y2="30.067"/>
<line fill="none" stroke="#FFFFFF" stroke-miterlimit="10" x1="19.575" y1="32.234" x2="19.575" y2="34.817"/>
<line fill="none" stroke="#FFFFFF" stroke-miterlimit="10" x1="20.199" y1="36.15" x2="23.949" y2="36.15"/>
<polyline fill="none" stroke="#FFFFFF" stroke-miterlimit="10" points="18.949,42.401 23.949,42.401 23.949,39.9 "/>
<line fill="none" stroke="#FFFFFF" stroke-miterlimit="10" x1="21.033" y1="38.65" x2="21.033" y2="42.401"/>
<polyline fill="none" stroke="#FFFFFF" stroke-miterlimit="10" points="30.366,15.401 30.366,19.151 28.116,19.151 "/>
<line fill="none" stroke="#FFFFFF" stroke-miterlimit="10" x1="33.366" y1="15.401" x2="33.366" y2="18.401"/>
<line fill="none" stroke="#FFFFFF" stroke-miterlimit="10" x1="36.616" y1="18.401" x2="36.616" y2="14.651"/>
<polyline fill="none" stroke="#FFFFFF" stroke-miterlimit="10" points="42.7,24.067 42.7,20.706 38.075,20.706 38.075,22.984 "/>
<line fill="none" stroke="#FFFFFF" stroke-miterlimit="10" x1="34.949" y1="19.817" x2="34.949" y2="21.317"/>
<line fill="none" stroke="#FFFFFF" stroke-miterlimit="10" x1="29.657" y1="21.317" x2="32.616" y2="21.317"/>
<polyline fill="none" stroke="#FFFFFF" stroke-miterlimit="10" points="26.699,25.15 28.949,25.15 28.949,27.859 "/>
<line fill="none" stroke="#FFFFFF" stroke-miterlimit="10" x1="21.783" y1="33.067" x2="24.699" y2="33.067"/>
<polyline fill="none" stroke="#FFFFFF" stroke-miterlimit="10" points="29.657,37.734 27.324,37.734 27.324,42.401 30.366,42.401 
	30.366,40.526 34.949,40.526 34.949,42.401 38.949,42.401 "/>
<line fill="none" stroke="#FFFFFF" stroke-miterlimit="10" x1="38.949" y1="40.526" x2="42.7" y2="40.526"/>
<line fill="none" stroke="#FFFFFF" stroke-miterlimit="10" x1="42.7" y1="38.15" x2="42.7" y2="42.984"/>
<line fill="none" stroke="#FFFFFF" stroke-miterlimit="10" x1="33.137" y1="38.15" x2="33.137" y2="40.567"/>
<line fill="none" stroke="#FFFFFF" stroke-miterlimit="10" x1="27.324" y1="33.525" x2="27.324" y2="35.65"/>
<line fill="none" stroke="#FFFFFF" stroke-miterlimit="10" x1="29.657" y1="23.734" x2="30.949" y2="23.734"/>
<polyline fill="none" stroke="#FFFFFF" stroke-miterlimit="10" points="33.137,22.817 33.137,25.15 31.866,25.15 31.866,29.067 "/>
<line fill="none" stroke="#FFFFFF" stroke-miterlimit="10" x1="41.199" y1="24.067" x2="41.199" y2="29.067"/>
<line fill="none" stroke="#FFFFFF" stroke-miterlimit="10" x1="38.949" y1="26.984" x2="41.199" y2="26.984"/>
<line fill="none" stroke="#FFFFFF" stroke-miterlimit="10" x1="38.033" y1="24.067" x2="38.033" y2="26.359"/>
<line fill="none" stroke="#FFFFFF" stroke-miterlimit="10" x1="42.7" y1="29.067" x2="42.7" y2="32.234"/>
<polyline fill="none" stroke="#FFFFFF" stroke-miterlimit="10" points="41.199,32.234 41.199,36.15 33.366,36.15 33.366,33.525 "/>
<line fill="none" stroke="#FFFFFF" stroke-miterlimit="10" x1="36.616" y1="40.068" x2="36.616" y2="36.15"/>
<line fill="none" stroke="#FFFFFF" stroke-miterlimit="10" x1="40.074" y1="38.65" x2="40.074" y2="36.15"/>
<line fill="none" stroke="#FFFFFF" stroke-miterlimit="10" x1="38.033" y1="33.525" x2="38.033" y2="36.15"/>
<polyline fill="none" stroke="#FFFFFF" stroke-miterlimit="10" points="38.949,28.15 36.616,28.15 36.616,30.067 33.366,30.067 
	33.366,32.234 "/>
<line fill="none" stroke="#FFFFFF" stroke-miterlimit="10" x1="29.657" y1="33.067" x2="32.616" y2="33.067"/>
<line fill="none" stroke="#FFFFFF" stroke-miterlimit="10" x1="36.616" y1="33.525" x2="36.616" y2="30.067"/>
<line fill="none" stroke="#FFFFFF" stroke-miterlimit="10" x1="34.949" y1="25.817" x2="34.949" y2="27.859"/>
</svg>
